0
SECTION
2
HEADER
9
$INSUNITS
70
4
9
$ACADVER
1
AC1014
9
$HANDSEED
5
FFFF
0
ENDSEC
0
SECTION
2
TABLES
0
TABLE
2
VPORT
5
8
100
AcDbSymbolTable
0
ENDTAB
0
TABLE
2
LTYPE
5
5
100
AcDbSymbolTable
0
LTYPE
5
14
100
AcDbSymbolTableRecord
100
AcDbLinetypeTableRecord
2
BYBLOCK
70
0
0
LTYPE
5
15
100
AcDbSymbolTableRecord
100
AcDbLinetypeTableRecord
2
BYLAYER
70
0
0
ENDTAB
0
TABLE
2
LAYER
5
2
100
AcDbSymbolTable
70
2
0
LAYER
5
50
100
AcDbSymbolTableRecord
100
AcDbLayerTableRecord
2
0
70
0
6
CONTINUOUS
0
ENDTAB
0
TABLE
2
STYLE
5
3
100
AcDbSymbolTable
70
1
0
STYLE
5
11
100
AcDbSymbolTableRecord
100
AcDbTextStyleTableRecord
2
STANDARD
70
0
0
ENDTAB
0
TABLE
2
VIEW
5
6
100
AcDbSymbolTable
70
0
0
ENDTAB
0
TABLE
2
UCS
5
7
100
AcDbSymbolTable
70
0
0
ENDTAB
0
TABLE
2
APPID
5
9
100
AcDbSymbolTable
70
2
0
APPID
5
12
100
AcDbSymbolTableRecord
100
AcDbRegAppTableRecord
2
ACAD
70
0
0
ENDTAB
0
TABLE
2
DIMSTYLE
5
A
100
AcDbSymbolTable
70
1
0
ENDTAB
0
TABLE
2
BLOCK_RECORD
5
1
100
AcDbSymbolTable
70
1
0
BLOCK_RECORD
5
1F
100
AcDbSymbolTableRecord
100
AcDbBlockTableRecord
2
*MODEL_SPACE
0
BLOCK_RECORD
5
1B
100
AcDbSymbolTableRecord
100
AcDbBlockTableRecord
2
*PAPER_SPACE
0
ENDTAB
0
ENDSEC
0
SECTION
2
BLOCKS
0
BLOCK
5
20
100
AcDbEntity
100
AcDbBlockBegin
2
*MODEL_SPACE
0
ENDBLK
5
21
100
AcDbEntity
100
AcDbBlockEnd
0
BLOCK
5
1C
100
AcDbEntity
100
AcDbBlockBegin
2
*PAPER_SPACE
0
ENDBLK
5
1D
100
AcDbEntity
100
AcDbBlockEnd
0
ENDSEC
0
SECTION
2
ENTITIES
0
LWPOLYLINE
5
100
100
AcDbEntity
8
0
100
AcDbPolyline
90
8
70
1
43
0.0
10
-54.900053739150998
20
-74.991083845024903
42
0.41421356237309509
10
-52.900053739151005
20
-72.991083845024903
10
-52.900053739150991
20
171.00891615497511
42
0.41421356237309509
10
-54.900053739150998
20
173.00891615497511
10
-262.90005373915102
20
173.00891615497511
42
0.41421356237309509
10
-264.90005373915102
20
171.00891615497511
10
-264.90005373915102
20
-72.991083845024903
42
0.41421356237309509
10
-262.90005373915102
20
-74.991083845024903
0
LWPOLYLINE
5
101
100
AcDbEntity
8
0
100
AcDbPolyline
90
8
70
1
43
0.0
10
-98.23389913754319
20
79.601407247343502
10
-105.2712338018851
20
79.601407247343616
42
-0.37639966333815766
10
-105.76696224749514
20
80.036189855391399
42
0.1989602900062358
10
-109.97741694882328
20
87.328911321058925
42
-0.37639966333817904
10
-110.10608550971131
20
87.975616052359712
10
-106.58741817754031
20
94.070126646612692
42
-0.43819260538509552
10
-105.87011946010031
20
94.231443387536217
42
-0.22489478511723446
10
-97.735545383127601
20
80.141947788286799
42
-0.43819260538514726
0
LWPOLYLINE
5
102
100
AcDbEntity
8
0
100
AcDbPolyline
90
8
70
1
43
0.0
10
-135.1120769642886
20
77.601407217541407
10
-128.07474229994671
20
77.601407217541293
42
-0.37639966333811481
10
-127.57901385433668
20
77.166624609493596
42
0.19896029000623691
10
-123.36855915300848
20
69.873903143826041
42
-0.37639966333820091
10
-123.23989059212053
20
69.227198412525226
10
-126.75855792429147
20
63.132687818272252
42
-0.43819260538507165
10
-127.47585664173143
20
62.971371077348657
42
-0.22489478511723623
10
-135.61043071870421
20
77.060866676598195
42
-0.43819260538509025
0
LWPOLYLINE
5
103
100
AcDbEntity
8
0
100
AcDbPolyline
90
8
70
1
43
0.0
10
-112.46253334958769
20
88.763693944007898
42
0.37639966333811353
10
-111.83813634308969
20
88.975616067260887
10
-108.31946901091868
20
95.070126661513797
42
0.43819260538509364
10
-108.53841397394316
20
95.77198394338069
42
0.22489478511723546
10
-124.80756212788862
20
95.771983943380619
42
0.43819260538500698
10
-125.0265070909131
20
95.070126661513811
10
-121.50783975874205
20
88.975616067260944
42
0.37639966333814834
10
-120.88344275224402
20
88.76369394400794
42
-0.19896029000623791
0
LWPOLYLINE
5
104
100
AcDbEntity
8
0
100
AcDbPolyline
90
8
70
1
43
0.0
10
-106.5874181775404
20
63.132687818272203
10
-110.10608550971131
20
69.227198412525183
42
-0.37639966333817848
10
-109.97741694882329
20
69.873903143825999
42
0.19896029000623675
10
-105.76696224749512
20
77.166624609493596
42
-0.37639966333812114
10
-105.2712338018851
20
77.601407217541293
10
-98.233899137543105
20
77.601407217541379
42
-0.43819260538509092
10
-97.735545383127629
20
77.060866676598124
42
-0.22489478511723493
10
-105.8701194601004
20
62.971371077348699
42
-0.43819260538508642
0
LWPOLYLINE
5
105
100
AcDbEntity
8
0
100
AcDbPolyline
90
8
70
1
43
0.0
10
-125.0265070909131
20
62.132687803371105
10
-121.50783975874212
20
68.227198397624107
42
-0.37639966333818203
10
-120.88344275224402
20
68.439120520877054
42
0.19896029000623522
10
-112.4625333495878
20
68.439120520877069
42
-0.37639966333817826
10
-111.83813634308969
20
68.227198397624122
10
-108.31946901091867
20
62.132687803371226
42
-0.43819260538512128
10
-108.53841397394321
20
61.430830521504312
42
-0.2248947851172346
10
-124.80756212788863
20
61.430830521504319
42
-0.43819260538506494
0
LWPOLYLINE
5
106
100
AcDbEntity
8
0
100
AcDbPolyline
90
8
70
1
43
0.0
10
-126.7585579242914
20
94.070126646612692
10
-123.23989059212042
20
87.975616052359726
42
-0.3763996633381258
10
-123.3685591530085
20
87.328911321059024
42
0.19896029000623722
10
-127.57901385433667
20
80.036189855391413
42
-0.37639966333816638
10
-128.07474229994671
20
79.601407247343616
10
-135.1120769642886
20
79.60140724734363
42
-0.43819260538509025
10
-135.61043071870418
20
80.141947788286814
42
-0.2248947851172361
10
-127.47585664173138
20
94.231443387536274
42
-0.43819260538516536
0
CIRCLE
5
107
100
AcDbEntity
8
0
100
AcDbCircle
10
132.6729880509159
20
62.615626846296308
30
8.3266726846886741e-16
40
1.6000000000000003
210
0
220
0
230
-1
0
CIRCLE
5
108
100
AcDbEntity
8
0
100
AcDbCircle
10
100.67298805091589
20
62.615626846296308
30
8.3266726846886741e-16
40
1.6000000000000003
210
0
220
0
230
-1
0
CIRCLE
5
109
100
AcDbEntity
8
0
100
AcDbCircle
10
132.6729880509159
20
94.615626846296294
30
8.3266726846886741e-16
40
1.6000000000000003
210
0
220
0
230
-1
0
CIRCLE
5
110
100
AcDbEntity
8
0
100
AcDbCircle
10
100.67298805091589
20
94.615626846296294
30
8.3266726846886741e-16
40
1.6000000000000003
210
0
220
0
230
-1
0
LWPOLYLINE
5
111
100
AcDbEntity
8
0
100
AcDbPolyline
90
8
70
1
43
0.0
10
-54.900053739150998
20
-74.991083845024903
42
0.41421356237309509
10
-52.900053739150998
20
-72.991083845024903
10
-52.900053739150991
20
171.00891615497511
42
0.41421356237309509
10
-54.900053739150998
20
173.00891615497508
10
-262.90005373915102
20
173.00891615497511
42
0.41421356237309509
10
-264.90005373915102
20
171.00891615497511
10
-264.90005373915102
20
-72.991083845024917
42
0.41421356237309243
10
-262.90005373915102
20
-74.991083845024903
0
CIRCLE
5
112
100
AcDbEntity
8
0
100
AcDbCircle
10
-132.6729880509159
20
62.615626846296308
30
0
40
1.6000000000000003
210
0
220
0
230
1
0
LWPOLYLINE
5
113
100
AcDbEntity
8
0
100
AcDbPolyline
90
8
70
1
43
0.0
10
-98.23389913754319
20
79.601407247343502
10
-105.2712338018851
20
79.601407247343587
42
-0.37639966333818653
10
-105.76696224749514
20
80.036189855391399
42
0.1989602900062358
10
-109.97741694882329
20
87.328911321058911
42
-0.37639966333815278
10
-110.10608550971131
20
87.975616052359712
10
-106.58741817754031
20
94.070126646612692
42
-0.43819260538511945
10
-105.87011946010031
20
94.231443387536189
42
-0.22489478511723249
10
-97.735545383127601
20
80.141947788286799
42
-0.43819260538514726
0
LWPOLYLINE
5
114
100
AcDbEntity
8
0
100
AcDbPolyline
90
8
70
1
43
0.0
10
-135.1120769642886
20
77.601407217541407
10
-128.07474229994671
20
77.601407217541308
42
-0.37639966333809216
10
-127.57901385433667
20
77.166624609493596
42
0.19896029000623688
10
-123.36855915300848
20
69.873903143826055
42
-0.37639966333821973
10
-123.23989059212053
20
69.227198412525212
10
-126.75855792429147
20
63.132687818272252
42
-0.43819260538507165
10
-127.47585664173144
20
62.971371077348657
42
-0.22489478511723773
10
-135.61043071870421
20
77.060866676598195
42
-0.43819260538509025
0
LWPOLYLINE
5
115
100
AcDbEntity
8
0
100
AcDbPolyline
90
8
70
1
43
0.0
10
-112.46253334958769
20
88.763693944007912
42
0.37639966333809205
10
-111.83813634308969
20
88.975616067260887
10
-108.31946901091868
20
95.070126661513811
42
0.43819260538506505
10
-108.53841397394316
20
95.77198394338069
42
0.22489478511723443
10
-124.80756212788862
20
95.771983943380633
42
0.43819260538503552
10
-125.0265070909131
20
95.070126661513797
10
-121.50783975874204
20
88.975616067260944
42
0.37639966333817254
10
-120.88344275224404
20
88.763693944007969
42
-0.19896029000623752
0
CIRCLE
5
116
100
AcDbEntity
8
0
100
AcDbCircle
10
-100.67298805091589
20
62.615626846296308
30
0
40
1.6000000000000003
210
0
220
0
230
1
0
CIRCLE
5
117
100
AcDbEntity
8
0
100
AcDbCircle
10
-132.6729880509159
20
94.615626846296294
30
0
40
1.6000000000000003
210
0
220
0
230
1
0
LWPOLYLINE
5
118
100
AcDbEntity
8
0
100
AcDbPolyline
90
8
70
1
43
0.0
10
-106.5874181775404
20
63.132687818272203
10
-110.10608550971135
20
69.227198412525183
42
-0.37639966333816588
10
-109.97741694882329
20
69.873903143825999
42
0.19896029000623663
10
-105.76696224749512
20
77.166624609493596
42
-0.37639966333812114
10
-105.2712338018851
20
77.601407217541293
10
-98.233899137543105
20
77.601407217541379
42
-0.43819260538511295
10
-97.735545383127629
20
77.060866676598096
42
-0.22489478511723435
10
-105.8701194601004
20
62.971371077348699
42
-0.43819260538506366
0
LWPOLYLINE
5
119
100
AcDbEntity
8
0
100
AcDbPolyline
90
8
70
1
43
0.0
10
-125.0265070909131
20
62.132687803371105
10
-121.50783975874211
20
68.227198397624122
42
-0.37639966333816
10
-120.88344275224402
20
68.439120520877069
42
0.19896029000623502
10
-112.4625333495878
20
68.439120520877083
42
-0.37639966333817076
10
-111.83813634308969
20
68.227198397624122
10
-108.31946901091867
20
62.132687803371233
42
-0.43819260538511895
10
-108.53841397394321
20
61.430830521504305
42
-0.22489478511723493
10
-124.80756212788864
20
61.430830521504333
42
-0.43819260538508736
0
LWPOLYLINE
5
120
100
AcDbEntity
8
0
100
AcDbPolyline
90
8
70
1
43
0.0
10
-126.7585579242914
20
94.070126646612692
10
-123.2398905921204
20
87.975616052359754
42
-0.37639966333813196
10
-123.3685591530085
20
87.328911321058996
42
0.198960290006237
10
-127.57901385433664
20
80.036189855391413
42
-0.37639966333815628
10
-128.07474229994671
20
79.601407247343616
10
-135.1120769642886
20
79.601407247343616
42
-0.43819260538511223
10
-135.61043071870418
20
80.141947788286828
42
-0.22489478511723701
10
-127.47585664173137
20
94.231443387536274
42
-0.43819260538515026
0
CIRCLE
5
121
100
AcDbEntity
8
0
100
AcDbCircle
10
-100.67298805091589
20
94.615626846296294
30
0
40
1.6000000000000003
210
0
220
0
230
1
0
ENDSEC
0
SECTION
2
OBJECTS
0
DICTIONARY
5
C
100
AcDbDictionary
3
ACAD_GROUP
350
D
3
ACAD_MLINESTYLE
350
17
0
DICTIONARY
5
D
100
AcDbDictionary
0
DICTIONARY
5
1A
330
C
100
AcDbDictionary
0
DICTIONARY
5
17
100
AcDbDictionary
0
ENDSEC
0
EOF
